<svg width="1318" height="502" viewBox="0 0 1318 502" fill="none" xmlns="http://www.w3.org/2000/svg">
<path d="M529 118H0.5L281.5 501.5H809.5L529 118Z" fill="#DB9B7F"/>
<path d="M800.638 277.333H827.506C826.789 290.337 824.151 301.871 819.592 311.936C815.033 321.911 808.682 329.749 800.54 335.45C792.398 341.15 782.531 344 770.937 344C762.013 344 753.969 341.862 746.805 337.587C739.705 333.223 733.615 327.033 728.534 319.017C723.519 310.912 719.676 301.203 717.006 289.892C714.335 278.491 713 265.71 713 251.548V236.719C713 222.557 714.368 209.776 717.103 198.375C719.839 186.975 723.747 177.267 728.828 169.251C733.973 161.145 740.128 154.911 747.293 150.546C754.523 146.182 762.6 144 771.523 144C783.117 144 792.92 146.939 800.931 152.818C808.943 158.607 815.163 166.578 819.592 176.732C824.021 186.886 826.692 198.554 827.603 211.735H800.736C800.215 203.541 798.912 196.594 796.828 190.894C794.808 185.194 791.747 180.874 787.644 177.935C783.605 174.906 778.232 173.392 771.523 173.392C766.312 173.392 761.72 174.728 757.747 177.4C753.839 180.072 750.582 184.08 747.977 189.424C745.372 194.679 743.418 201.27 742.115 209.197C740.812 217.035 740.161 226.12 740.161 236.452V251.548C740.161 261.435 740.747 270.297 741.92 278.135C743.092 285.973 744.916 292.608 747.391 298.041C749.866 303.475 753.057 307.616 756.966 310.466C760.874 313.316 765.531 314.741 770.937 314.741C777.515 314.741 782.856 313.316 786.96 310.466C791.128 307.616 794.287 303.43 796.437 297.908C798.651 292.386 800.052 285.528 800.638 277.333Z" fill="#4D3833"/>
<path d="M942.598 312.47V341.328H866.977V312.47H942.598ZM875.184 146.806V341.328H848.316V146.806H875.184ZM932.73 227.1V255.289H866.977V227.1H932.73ZM942.305 146.806V175.797H866.977V146.806H942.305Z" fill="#4D3833"/>
<path d="M1068.57 146.806V341.328H1041.6L981.126 206.391V341.328H954.259V146.806H981.126L1041.8 281.876V146.806H1068.57Z" fill="#4D3833"/>
<path d="M1187.21 312.47V341.328H1111.59V312.47H1187.21ZM1119.79 146.806V341.328H1092.93V146.806H1119.79ZM1177.34 227.1V255.289H1111.59V227.1H1177.34ZM1186.91 146.806V175.797H1111.59V146.806H1186.91Z" fill="#4D3833"/>
<path d="M1208.87 146.806H1260.55C1271.36 146.806 1280.65 149.032 1288.4 153.486C1296.15 157.939 1302.11 164.53 1306.28 173.259C1310.44 181.987 1312.53 192.72 1312.53 205.456C1312.53 215.521 1311.23 224.249 1308.62 231.642C1306.02 239.035 1302.34 245.225 1297.58 250.212C1292.89 255.2 1287.35 259.119 1280.97 261.969L1272.57 267.848H1226.94L1226.75 238.856H1260.84C1266.38 238.856 1270.97 237.52 1274.62 234.848C1278.27 232.176 1281 228.48 1282.83 223.76C1284.72 219.039 1285.66 213.65 1285.66 207.594C1285.66 201.092 1284.75 195.481 1282.93 190.76C1281.1 185.951 1278.33 182.254 1274.62 179.671C1270.91 177.088 1266.22 175.797 1260.55 175.797H1235.74V341.328H1208.87V146.806ZM1289.18 341.328L1256.25 254.22L1284.68 254.087L1318 339.458V341.328H1289.18Z" fill="#4D3833"/>
<circle cx="424.5" cy="240.5" r="240.5" fill="#4D3833"/>
<path d="M377.21 306.574V334.422H305.745V306.574H377.21ZM313.848 146.707V334.422H287V146.707H313.848Z" fill="white"/>
<path d="M470.544 146.707H497.392V271.377C497.392 285.731 495.049 297.807 490.363 307.605C485.677 317.318 479.298 324.666 471.227 329.651C463.157 334.55 453.979 337 443.696 337C433.282 337 424.007 334.55 415.871 329.651C407.736 324.666 401.357 317.318 396.736 307.605C392.115 297.807 389.804 285.731 389.804 271.377V146.707H416.652V271.377C416.652 280.144 417.759 287.321 419.972 292.908C422.185 298.409 425.309 302.491 429.344 305.156C433.38 307.82 438.163 309.152 443.696 309.152C449.293 309.152 454.077 307.82 458.047 305.156C462.083 302.491 465.174 298.409 467.322 292.908C469.47 287.321 470.544 280.144 470.544 271.377V146.707Z" fill="white"/>
<path d="M606.054 272.667H632.902C632.186 285.215 629.55 296.346 624.994 306.058C620.438 315.684 614.092 323.248 605.957 328.749C597.821 334.25 587.96 337 576.375 337C567.458 337 559.42 334.937 552.26 330.812C545.166 326.6 539.08 320.627 534.003 312.891C528.992 305.07 525.152 295.701 522.483 284.786C519.815 273.784 518.48 261.45 518.48 247.784V233.474C518.48 219.808 519.847 207.474 522.581 196.472C525.314 185.471 529.22 176.102 534.296 168.367C539.438 160.545 545.589 154.529 552.748 150.317C559.973 146.106 568.044 144 576.96 144C588.546 144 598.341 146.836 606.347 152.509C614.353 158.096 620.568 165.788 624.994 175.587C629.42 185.385 632.089 196.644 633 209.365H606.152C605.631 201.457 604.329 194.753 602.247 189.253C600.229 183.752 597.17 179.583 593.069 176.747C589.034 173.825 583.664 172.363 576.96 172.363C571.754 172.363 567.165 173.653 563.195 176.231C559.289 178.81 556.035 182.677 553.432 187.834C550.828 192.905 548.876 199.266 547.574 206.915C546.272 214.479 545.621 223.246 545.621 233.216V247.784C545.621 257.325 546.207 265.877 547.379 273.44C548.55 281.004 550.373 287.407 552.846 292.65C555.319 297.893 558.508 301.89 562.414 304.64C566.319 307.39 570.973 308.766 576.375 308.766C582.948 308.766 588.286 307.39 592.386 304.64C596.552 301.89 599.708 297.85 601.856 292.521C604.069 287.192 605.468 280.574 606.054 272.667Z" fill="white"/>
</svg>
